# AST/ASF file generated using VICON BodyLanguage
# -----------------------------------------------
:version 1.10
:name VICON
:units
  mass 1.0
  length 0.45
  angle deg
:documentation
   .ast/.asf automatically generated from VICON data using
   VICON BodyBuilder and BodyLanguage model FoxedUp or BRILLIANT.MOD
:root
   order TX TY TZ RX RY RZ
   axis XYZ
   position 0 0 0  
   orientation 0 0 0 
:bonedata
  begin
     id 1 
     name lhipjoint
     direction 0.716248 -0.617586 0.324924 
     length 2.63557 
     axis 0 0 0  XYZ
  end
  begin
     id 2 
     name lfemur
     direction 0.34202 -0.939693 0  
     length 7.01235  
     axis 0 0 20  XYZ
    dof rx ry rz
    limits (-160.0 20.0)
           (-70.0 70.0)
           (-60.0 70.0)
  end
  begin
     id 3 
     name ltibia
     direction 0.34202 -0.939693 0   
     length 8.14348   
     axis 0 0 20   XYZ
    dof rx
    limits (-10.0 170.0)
  end
  begin
     id 4 
     name lfoot
     direction 0.0982064 -0.26982 0.95789   
     length 1.99077   
     axis -90 7.62852e-016 20   XYZ
    dof rx rz
    limits (-45.0 90.0)
           (-70.0 20.0)
  end
  begin
     id 5 
     name ltoes
     direction 1.53511e-011 -4.21891e-011 1   
     length 0.99735   
     axis -90 7.62852e-016 20   XYZ
    dof rx
    limits (-90.0 20.0)
  end
  begin
     id 6 
     name rhipjoint
     direction -0.687828 -0.642391 0.337975   
     length 2.5338  
     axis 0 0 0  XYZ 
  end
  begin
     id 7 
     name rfemur
     direction -0.34202 -0.939693 0   
     length 6.90199   
     axis 0 0 -20   XYZ
    dof rx ry rz
    limits (-160.0 20.0)
           (-70.0 70.0)
           (-70.0 60.0)
  end
  begin
     id 8 
     name rtibia
     direction -0.34202 -0.939693 0   
     length 8.07725   
     axis 0 0 -20   XYZ
    dof rx
    limits (-10.0 170.0)
 end
 begin
     id 9 
     name rfoot
     direction -0.0912384 -0.250675 0.963762   
     length 2.11621  
     axis -90 -7.62852e-016 -20   XYZ
    dof rx rz
    limits (-45.0 90.0)
           (-20.0 70.0)
  end
  begin
     id 10 
     name rtoes
     direction -1.5359e-011 -4.21894e-011 1   
     length 1.06031   
     axis -90 -7.62852e-016 -20   XYZ
    dof rx
    limits (-90.0 20.0)
  end
  begin
     id 11 
     name lowerback
     direction -0.0403572 0.987953 -0.149396   
     length 2.05637   
     axis 0 0 0   XYZ
    dof rx ry rz
    limits (-20.0 45.0)
           (-30.0 30.0)
           (-30.0 30.0)
  end
  begin
     id 12 
     name upperback
     direction -0.00512151 0.997598 0.0690792   
     length 2.01086   
     axis 0 0 0   XYZ
    dof rx ry rz
    limits (-20.0 45.0)
           (-30.0 30.0)
           (-30.0 30.0)
  end
  begin
     id 13 
     name thorax
     direction 0.0136133 0.989392 0.14463   
     length 2.09035   
     axis 0 0 0   XYZ
    dof rx ry rz
    limits (-20.0 45.0)
           (-30.0 30.0)
           (-30.0 30.0)
  end
  begin
     id 14 
     name lowerneck
     direction 0.0250714 0.992811 0.11704   
     length 1.70806   
     axis 0 0 0   XYZ
    dof rx ry rz
    limits (-20.0 45.0)
           (-30.0 30.0)
           (-30.0 30.0)
  end
  begin
     id 15 
     name upperneck
     direction -0.0519205 0.998394 -0.0226787   
     length 1.6689   
     axis 0 0 0   XYZ
    dof rx ry rz
    limits (-20.0 45.0)
           (-30.0 30.0)
           (-30.0 30.0)
  end
  begin
     id 16
     name head
     direction -0.0201693 0.999547 -0.0223192  
     length 1.83412  
     axis 0 0 0   XYZ
    dof rx ry rz
    limits (-20.0 45.0)
           (-30.0 30.0)
           (-30.0 30.0)
  end
  begin
     id 17 
     name lclavicle
     direction 0.89585 0.444077 -0.0157448  
     length 3.39587  
     axis 0 0 0   XYZ
    dof ry rz
    limits (-20.0 10.0)
           (0.0 20.0)
  end
  begin
     id 18 
     name lhumerus
     direction 1 -4.48956e-011 1.99132e-028   
     length 5.79199   
     axis 180 -30 -90   XYZ
    dof rx ry rz
    limits (-60.0 90.0)
           (-90.0 90.0)
           (-90.0 90.0)
  end
  begin
     id 19
     name lradius
     direction 1 -4.48974e-011 8.72912e-028   
     length 3.49908   
     axis 180 -30 -90   XYZ
    dof rx
    limits (-10.0 170.0)
  end
  begin
     id 20
     name lwrist
     direction 1 -4.48994e-011 4.76442e-027   
     length 1.74954   
     axis -3.27502e-015 90 90   XYZ
    dof ry
    limits (-180.0 0.0)
 end
  begin
     id 21 
     name lhand
     direction 1 -4.48945e-011 9.531e-027   
     length 0.593861   
     axis -6.08098e-015 90 90   XYZ
    dof rx rz
    limits (-90.0 90.0)
           (-45.0 45.0)
  end
  begin
     id 22 
     name lfingers
     direction 1 -4.48945e-011 1.9062e-026   
     length 0.478786   
     axis -1.21619e-014 90 90   XYZ
    dof rx
    limits (0.0 90.0)
  end
  begin
     id 23
     name lthumb
     direction 0.707107 -6.34904e-011 0.707107   
     length 0.687444   
     axis -90 45 -9.86923e-015   XYZ
    dof rx rz
    limits (-45.0 45.0)
           (-45.0 45.0)
  end
  begin
     id 24 
     name rclavicle
     direction -0.940466 0.338394 0.0318182   
     length 3.51226  
     axis 0 0 0   XYZ 
    dof ry rz
    limits (-10.0 20.0)
           (-20.0 0.0)
  end
  begin
     id 25 
     name rhumerus
     direction -1 -4.48976e-011 2.0905e-027  
     length 5.73799   
     axis 180 30 90   XYZ
    dof rx ry rz
    limits (-90.0 60.0)
           (-90.0 90.0)
           (-90.0 90.0)
  end
  begin
     id 26 
     name rradius
     direction -1 -4.48968e-011 -9.39692e-029   
     length 3.57916   
     axis 180 30 90   XYZ
    dof rx
    limits (-10.0 170.0)
  end
  begin
     id 27 
     name rwrist
     direction -1 -4.48959e-011 4.7652e-027   
     length 1.78958   
     axis -3.27502e-015 -90 -90   XYZ
    dof ry
    limits (-180.0 0.0)
  end
  begin
     id 28
     name rhand
     direction -1 -4.49042e-011 9.5267e-027   
     length 0.615577   
     axis -6.08098e-015 -90 -90   XYZ
    dof rx rz
    limits (-90.0 90.0)
           (-45.0 45.0)
  end
  begin
     id 29
     name rfingers
     direction -1 -4.48935e-011 1.90629e-026   
     length 0.496294   
     axis -1.21619e-014 -90 -90   XYZ
    dof rx
    limits (0.0 90.0)
  end
  begin
     id 30
     name rthumb
     direction -0.707107 -6.34977e-011 0.707107   
     length 0.712582   
     axis -90 -45 9.86923e-015   XYZ
    dof rx rz
    limits (-45.0 45.0)
           (-45.0 45.0)
  end
:hierarchy
  begin
    root lhipjoint rhipjoint lowerback
    lhipjoint lfemur
    lfemur ltibia
    ltibia lfoot
    lfoot ltoes
    rhipjoint rfemur
    rfemur rtibia
    rtibia rfoot
    rfoot rtoes
    lowerback upperback
    upperback thorax
    thorax lowerneck lclavicle rclavicle
    lowerneck upperneck
    upperneck head
    lclavicle lhumerus
    lhumerus lradius
    lradius lwrist
    lwrist lhand lthumb
    lhand lfingers
    rclavicle rhumerus
    rhumerus rradius
    rradius rwrist
    rwrist rhand rthumb
    rhand rfingers
  end

#!OML:ASF H:\Terrain\Patient Classification 1\PaulMetrics\March17Take5\PaulMetrics.ASF
:FULLY-SPECIFIED
:DEGREES
3522
root 21.0841 17.973 29.3802 -363.845 -57.6723 11.1993
lowerback 3.66731 -1.31076 -4.52897
upperback -3.28358 -1.93829 2.31111
thorax -5.24877 -0.749143 5.11581
lowerneck -1.37629 -8.72326 -1.26394
upperneck 1.50873 -11.7893 6.48872
head 1.20319 -5.84195 2.03303
rclavicle 6.13748e-014 -4.77083e-015
rhumerus -46.6345 4.26745 -78.901
rradius 64.752
rwrist -29.6609
rhand -24.3004 -48.0324
rfingers 7.12502
rthumb 2.18724 281.999
lclavicle 6.13748e-014 -4.77083e-015
lhumerus -48.8557 -11.9039 91.003
lradius 32.6372
lwrist 18.3375
lhand -3.79749 -21.139
lfingers 7.12502
lthumb 21.9484 7.63587
rfemur -19.0912 19.466 4.35711
rtibia 44.0431
rfoot -14.3313 9.56161
rtoes -7.06259
lfemur -18.5226 -7.33405 -11.7812
ltibia 32.7445
lfoot -14.4876 -0.435477
ltoes -27.6602
3523
root 21.1559 17.9833 29.4746 -364.408 -59.0462 12.3509
lowerback 3.40962 -1.32281 -5.00745
upperback -3.38866 -1.97363 2.35182
thorax -5.19469 -0.748004 5.42668
lowerneck -1.20355 -9.27285 -1.59524
upperneck 1.39988 -12.5088 6.44187
head 1.18849 -6.20749 2.06316
rclavicle -7.55382e-015 1.27222e-014
rhumerus -46.7076 3.63916 -78.3788
rradius 64.6839
rwrist -30.0896
rhand -21.9774 -46.712
rfingers 7.12502
rthumb 4.43056 283.354
lclavicle -7.55382e-015 1.27222e-014
lhumerus -48.8687 -12.4808 91.2267
lradius 32.6034
lwrist 18.3603
lhand -3.81399 -20.9881
lfingers 7.12502
lthumb 21.9326 7.78867
rfemur -20.1825 18.6145 3.63545
rtibia 44.7363
rfoot -14.3037 8.03616
rtoes -8.44468
lfemur -18.4668 -6.61647 -12.6711
ltibia 32.4881
lfoot -15.5696 0.0965415
ltoes -26.7252
3524
root 21.2353 17.9873 29.5623 -365.798 -60.2658 14.0344
lowerback 3.61333 -1.32816 -5.74906
upperback -3.3878 -2.03819 2.28599
thorax -5.2853 -0.74893 5.79141
lowerneck -1.45475 -9.77801 -2.18811
upperneck 1.88674 -13.2118 6.68254
head 1.48172 -6.54527 2.18713
rclavicle -2.41026e-014 3.02153e-014
rhumerus -46.5661 2.75477 -77.6579
rradius 64.2996
rwrist -28.5245
rhand -20.2466 -46.2001
rfingers 7.12502
rthumb 6.10172 283.908
lclavicle -2.41026e-014 3.02153e-014
lhumerus -48.7369 -12.8873 91.139
lradius 32.4856
lwrist 18.0765
lhand -3.63849 -21.0033
lfingers 7.12502
lthumb 22.1011 7.75363
rfemur -20.9742 17.8657 2.76787
rtibia 45.4808
rfoot -13.5519 6.87556
rtoes -2.11649
lfemur -18.1303 -6.08918 -13.8471
ltibia 32.2406
lfoot -16.1409 0.556987
ltoes -25.7468
3525
root 21.3149 17.9885 29.6461 -367.184 -61.423 15.622
lowerback 3.85119 -1.34561 -6.32024
upperback -3.35381 -2.11577 2.15631
thorax -5.36411 -0.764874 5.99307
lowerneck -1.39865 -10.0657 -2.37374
upperneck 1.95396 -13.6038 6.81033
head 1.53765 -6.74059 2.24493
rclavicle 4.65156e-014 1.74931e-014
rhumerus -46.4805 2.02752 -77.1988
rradius 64.1005
rwrist -27.4986
rhand -22.216 -46.5768
rfingers 7.12502
rthumb 4.20017 283.485
lclavicle 4.65156e-014 1.74931e-014
lhumerus -48.7454 -13.7215 91.0844
lradius 32.5384
lwrist 18.0059
lhand -3.62158 -21.1032
lfingers 7.12502
lthumb 22.1173 7.65174
rfemur -21.6808 17.1816 2.12962
rtibia 46.2161
rfoot -13.7164 5.45373
rtoes -0.0275263
lfemur -17.7474 -5.73313 -14.8925
ltibia 31.9512
lfoot -16.6801 0.927163
ltoes -24.0354
3526
root 21.3863 17.9976 29.7333 -368.363 -62.6125 17.0666
lowerback 3.85737 -1.35887 -6.72391
upperback -3.33076 -2.16339 2.06696
thorax -5.32868 -0.776608 6.13111
lowerneck -0.942388 -10.4394 -2.33866
upperneck 1.44446 -14.0794 6.89033
head 1.32248 -6.99486 2.28804
rclavicle -1.49089e-016 2.06736e-014
rhumerus -46.5146 1.73351 -76.9454
rradius 64.0651
rwrist -27.5222
rhand -25.6424 -43.8524
rfingers 7.12502
rthumb 0.891118 286.17
lclavicle -1.49089e-016 2.06736e-014
lhumerus -48.8005 -14.6916 91.1041
lradius 32.6558
lwrist 18.1625
lhand -3.85685 -21.1196
lfingers 7.12502
lthumb 21.8914 7.66191
rfemur -22.4663 16.3527 1.70645
rtibia 46.88
rfoot -13.764 3.70498
rtoes -1.12678
lfemur -17.4676 -5.51452 -15.7904
ltibia 31.6971
lfoot -17.5615 1.3592
ltoes -22.2876
3527
root 21.455 18.0068 29.8198 -369.479 -63.8322 18.3489
lowerback 3.95111 -1.37463 -7.10296
upperback -3.31673 -2.2136 2.09955
thorax -5.34874 -0.785506 6.38903
lowerneck -0.659956 -10.7565 -2.41045
upperneck 1.14323 -14.4835 6.83215
head 1.19817 -7.20752 2.29358
rclavicle -4.32854e-014 -1.90833e-014
rhumerus -46.5083 1.53343 -76.6873
rradius 63.839
rwrist -27.2342
rhand -24.7594 -44.7448
rfingers 7.12502
rthumb 1.74396 285.283
lclavicle -4.32854e-014 -1.90833e-014
lhumerus -48.6834 -15.1025 90.8258
lradius 32.5411
lwrist 17.971
lhand -3.71485 -21.2281
lfingers 7.12502
lthumb 22.0278 7.53743
rfemur -23.1401 15.5401 1.49095
rtibia 47.4425
rfoot -13.6798 2.09017
rtoes -0.844971
lfemur -17.1932 -5.49268 -16.5433
ltibia 31.5651
lfoot -18.558 2.09332
ltoes -20.3382
3528
root 21.527 18.0113 29.9039 -370.24 -65.151 19.2516
lowerback 4.0178 -1.39473 -7.20333
upperback -3.30105 -2.24945 2.14423
thorax -5.36028 -0.798415 6.49891
lowerneck -0.572348 -10.9789 -2.5835
upperneck 1.08893 -14.7777 6.86494
head 1.19743 -7.35727 2.32849
rclavicle -4.47266e-014 -3.81667e-014
rhumerus -46.5513 1.35462 -76.6216
rradius 63.6051
rwrist -27.3205
rhand -25.0492 -45.5196
rfingers 7.12502
rthumb 1.464 284.506
lclavicle -4.47266e-014 -3.81667e-014
lhumerus -48.4067 -15.2156 90.2317
lradius 32.2011
lwrist 17.4599
lhand -3.73423 -21.5084
lfingers 7.12502
lthumb 22.0092 7.25931
rfemur -23.8304 14.8432 1.57489
rtibia 47.8942
rfoot -14.0167 0.541084
rtoes 0.936366
lfemur -17.0385 -5.73054 -17.0294
ltibia 31.581
lfoot -19.6638 3.07355
ltoes -17.4892
3529
root 21.5956 18.0118 29.9823 -370.71 -66.5077 19.9073
lowerback 3.84862 -1.41505 -7.05619
upperback -3.21318 -2.25338 2.12184
thorax -5.17405 -0.817652 6.38152
lowerneck -0.641845 -11.1893 -2.60085
upperneck 1.0898 -15.0615 6.93255
head 1.23143 -7.49727 2.33823
rclavicle -2.24627e-014 3.18055e-015
rhumerus -46.5973 1.22055 -76.6844
rradius 63.3335
rwrist -27.3449
rhand -26.0812 -45.4114
rfingers 7.12502
rthumb 0.467311 284.609
lclavicle -2.24627e-014 3.18055e-015
lhumerus -48.0101 -15.6068 89.5337
lradius 31.8601
lwrist 17.151
lhand -4.13058 -21.6036
lfingers 7.12502
lthumb 21.6286 7.20848
rfemur -24.5716 14.1533 1.89622
rtibia 48.2835
rfoot -14.1084 -1.74834
rtoes 3.97952
lfemur -17.0741 -6.10289 -17.3228
ltibia 31.7774
lfoot -21.1572 3.91243
ltoes -14.6349
3530
root 21.6604 18.0076 30.0593 -371.204 -67.7369 20.5851
lowerback 3.6764 -1.42738 -6.91549
upperback -3.13989 -2.24766 2.1071
thorax -5.00305 -0.83021 6.27579
lowerneck -0.785811 -11.522 -2.6419
upperneck 1.14726 -15.5167 7.11752
head 1.31849 -7.71959 2.37487
rclavicle -5.75482e-014 -7.95139e-015
rhumerus -46.6237 0.969332 -76.5801
rradius 63.0867
rwrist -26.6229
rhand -25.2806 -45.402
rfingers 7.12502
rthumb 1.24057 284.622
lclavicle -5.75482e-014 -7.95139e-015
lhumerus -47.721 -16.223 88.9285
lradius 31.7233
lwrist 17.1709
lhand -4.21747 -21.4697
lfingers 7.12502
lthumb 21.5451 7.35196
rfemur -25.1706 13.149 2.30531
rtibia 48.6546
rfoot -13.8642 -4.11561
rtoes 5.67999
lfemur -17.237 -6.35081 -17.6181
ltibia 32.1354
lfoot -22.4746 4.52847
ltoes -13.9833
3531
root 21.7312 18.0029 30.1425 -371.665 -68.8849 21.2624
lowerback 3.62806 -1.41038 -6.71965
upperback -3.14374 -2.2092 2.13345
thorax -4.98996 -0.818498 6.18774
lowerneck -0.87855 -11.719 -2.4505
upperneck 1.16791 -15.7655 6.68184
head 1.29555 -7.84305 2.19412
rclavicle 1.70955e-014 -1.59028e-014
rhumerus -46.6247 0.581195 -76.2551
rradius 62.8925
rwrist -25.9098
rhand -24.2322 -45.6835
rfingers 7.12502
rthumb 2.25312 284.349
lclavicle 1.70955e-014 -1.59028e-014
lhumerus -47.432 -16.5797 88.2903
lradius 31.5743
lwrist 17.0537
lhand -4.14964 -21.4824
lfingers 7.12502
lthumb 21.6103 7.33172
rfemur -25.8295 11.8472 2.79822
rtibia 49.0638
rfoot -13.763 -5.58313
rtoes 7.04582
lfemur -17.521 -6.09252 -17.9208
ltibia 32.5431
lfoot -22.6628 4.97764
ltoes -17.239
3532
root 21.8051 17.9934 30.2235 -372.697 -70.0187 22.5765
lowerback 3.6118 -1.42716 -6.79001
upperback -3.18041 -2.23543 2.15945
thorax -5.01259 -0.826806 6.25768
lowerneck -0.522212 -11.8656 -2.43934
upperneck 0.669746 -15.9366 6.75209
head 1.08943 -7.94327 2.24943
rclavicle 4.67144e-015 7.95139e-015
rhumerus -46.5757 0.201796 -75.9869
rradius 62.4604
rwrist -25.1944
rhand -25.6386 -43.1289
rfingers 7.12502
rthumb 0.894761 286.893
lclavicle 4.67144e-015 7.95139e-015
lhumerus -46.9909 -16.3232 87.369
lradius 31.1936
lwrist 16.5746
lhand -3.94624 -22.0183
lfingers 7.12502
lthumb 21.8056 6.77329
rfemur -26.6672 10.6007 3.14233
rtibia 49.5215
rfoot -14.1293 -7.03715
rtoes 7.66715
lfemur -17.87 -5.25458 -18.4154
ltibia 32.9229
lfoot -22.1312 5.57173
ltoes -22.9556
3533
root 21.8759 17.9828 30.3032 -374.827 -71.0455 24.9662
lowerback 3.63168 -1.60132 -7.23177
upperback -3.23735 -2.49799 2.18751
thorax -5.0279 -0.938574 6.55924
lowerneck -0.0939199 -11.7778 -2.81081
upperneck 0.33586 -15.8077 6.96868
head 0.956381 -7.89264 2.41884
rclavicle 1.51076e-014 1.90833e-014
rhumerus -46.4737 0.304791 -75.9145
rradius 61.883
rwrist -23.9719
rhand -24.0677 -47.6938
rfingers 7.12502
rthumb 2.41198 282.34
lclavicle 1.51076e-014 1.90833e-014
lhumerus -46.7431 -15.5986 86.5223
lradius 30.8847
lwrist 17.0542
lhand -4.75938 -21.9423
lfingers 7.12502
lthumb 21.0246 6.93807
rfemur -27.4338 9.28569 3.19671
rtibia 49.9934
rfoot -15.1171 -8.66358
rtoes 4.80979
lfemur -18.133 -4.29287 -19.2653
ltibia 33.2608
lfoot -22.389 5.93461
ltoes -23.0491
3534
root 21.9409 17.9792 30.3747 -377.015 -72.1733 27.2567
lowerback 3.7624 -1.6577 -7.46967
upperback -3.24346 -2.59997 2.1447
thorax -5.08628 -0.978219 6.66215
lowerneck -0.00333938 -11.7718 -3.07313
upperneck 0.363926 -15.8078 7.15058
head 0.989649 -7.89425 2.52121
rclavicle -2.38542e-015 7.95139e-015
rhumerus -46.3837 0.554339 -76.0359
rradius 61.2453
rwrist -23.4723
rhand -21.6507 -47.7712
rfingers 7.12502
rthumb 4.74608 282.302
lclavicle -2.38542e-015 7.95139e-015
lhumerus -46.6939 -15.7271 86.2442
lradius 30.8668
lwrist 19.814
lhand -8.98857 -20.3009
lfingers 7.12502
lthumb 16.9574 8.97882
rfemur -28.0357 8.14318 3.53396
rtibia 50.4228
rfoot -16.154 -10.2065
rtoes 2.18704
lfemur -18.1684 -3.35883 -19.9309
ltibia 33.4422
lfoot -23.3993 5.71383
ltoes -17.0296
3535
root 22.0008 17.975 30.43 -378.795 -73.4492 29.1005
lowerback 3.93392 -1.52296 -7.53349
upperback -3.23459 -2.44135 2.03295
thorax -5.20448 -0.893445 6.57639
lowerneck -0.111171 -11.799 -2.71716
upperneck 0.469273 -15.8476 7.01663
head 1.0005 -7.91069 2.41201
rclavicle 2.95195e-014 -2.54444e-014
rhumerus -46.3816 0.577431 -76.3388
rradius 60.5181
rwrist -23.7177
rhand -20.416 -46.5455
rfingers 7.12502
rthumb 5.93815 283.558
lclavicle 2.95195e-014 -2.54444e-014
lhumerus -45.6504 -14.5718 83.8292
lradius 29.5029
lwrist 15.3848
lhand -7.58584 -21.5862
lfingers 7.12502
lthumb 18.3073 7.57228
rfemur -28.572 7.35878 4.24889
rtibia 50.6485
rfoot -16.812 -11.5779
rtoes 1.67855
lfemur -18.3164 -2.39633 -20.2308
ltibia 33.8063
lfoot -24.1102 5.61979
ltoes -13.2309
3536
root 22.0445 17.9706 30.5008 -382.395 -74.1996 32.699
lowerback 4.01935 -1.58058 -8.00624
upperback -3.22033 -2.5677 1.77497
thorax -5.21278 -0.943311 6.58257
lowerneck -0.430552 -11.8437 -2.40932
upperneck 1.0027 -15.9277 6.64709
head 1.16767 -7.9366 2.20722
rclavicle 3.70733e-014 6.36111e-015
rhumerus -46.5232 0.789484 -76.6807
rradius 59.8477
rwrist -23.3898
rhand -22.4995 -46.9266
rfingers 7.12502
rthumb 3.92646 283.13
lclavicle 3.70733e-014 6.36111e-015
lhumerus -45.0055 -13.4168 81.684
lradius 28.2445
lwrist 12.6855
lhand -4.61645 -25.1514
lfingers 7.12502
lthumb 21.1619 3.71358
rfemur -28.6593 5.90762 4.33507
rtibia 50.7319
rfoot -17.3408 -11.9574
rtoes 0.777338
lfemur -18.2376 -1.49568 -21.218
ltibia 34.1719
lfoot -24.5738 5.42241
ltoes -11.4764
